<?xml version="1.0" encoding="utf-8"?>
<!-- Generator: Adobe Illustrator 30.3.0, SVG Export Plug-In . SVG Version: 9.03 Build 0)  -->
<svg version="1.1" id="Layer_1" xmlns="http://www.w3.org/2000/svg" xmlns:xlink="http://www.w3.org/1999/xlink" x="0px" y="0px"
	 viewBox="0 0 160 160" style="enable-background:new 0 0 160 160;" xml:space="preserve">
<style type="text/css">
	.st0{fill:#0D6BAA;}
</style>
<g>
	<path class="st0" d="M80,2.92C37.43,2.92,2.92,37.43,2.92,80c0,42.57,34.51,77.08,77.08,77.08s77.08-34.51,77.08-77.08
		C157.08,37.43,122.57,2.92,80,2.92z M73.11,145.28c-36.05,0-65.28-29.23-65.28-65.28s29.23-65.28,65.28-65.28S138.4,43.95,138.4,80
		S109.17,145.28,73.11,145.28z"/>
</g>
<rect x="48.77" y="36.9" width="15.1" height="88.29"/>
<path d="M76.8,32.85c-6.17,0-11.9,1.87-16.66,5.07v49.65c4.76,3.2,10.49,5.07,16.66,5.07c16.51,0,29.9-13.39,29.9-29.9
	C106.7,46.24,93.31,32.85,76.8,32.85z M80.07,78.16c-8.69,0-15.73-7.04-15.73-15.73c0-8.69,7.04-15.73,15.73-15.73
	S95.8,53.75,95.8,62.44C95.8,71.12,88.76,78.16,80.07,78.16z"/>
</svg>
